Coordinates
version=1
nRows=21
nColumns=22
inDegrees=yes

Units are S.I. units (second, meters, Newtons, ...)
If the header above contains a line with 'inDegrees', this indicates whether rotational values are in degrees (yes) or radians (no).

endheader
time	pelvis_tilt	pelvis_list	pelvis_rotation	pelvis_tx	pelvis_ty	pelvis_tz	hip_flexion_r	hip_adduction_r	hip_rotation_r	knee_angle_r	ankle_angle_r	subtalar_angle_r	hip_flexion_l	hip_adduction_l	hip_rotation_l	knee_angle_l	ankle_angle_l	subtalar_angle_l	lumbar_extension	lumbar_bending	lumbar_rotation
      1.30000000	    -11.87531924	      4.01678794	    -35.54514809	     -0.96992095	      0.87790983	     -0.39714989	     11.83797886	      0.63133321	      2.81975262	     -6.75702386	     12.00116507	     -0.36310005	      9.35199501	     -3.62824381	     -5.50893074	     -9.18200716	     16.85729304	      1.49770352	      5.39636892	      0.47003345	     14.02613777
      1.31000000	    -11.80150043	      4.03888120	    -35.44070114	     -0.96864359	      0.87774268	     -0.39786385	     12.00696431	      0.46750238	      2.74814608	     -7.28407357	     12.32932464	     -0.22465962	      9.30836716	     -3.45876379	     -5.32069328	     -9.26040886	     16.95832828	      1.30567078	      5.33861262	      0.43485760	     13.99110427
      1.32000000	    -11.69357925	      4.01574885	    -35.34438210	     -0.96727506	      0.87761495	     -0.39853447	     12.13821458	      0.32443959	      2.69871222	     -7.86187215	     12.68611848	     -0.16669895	      9.19931505	     -3.30997122	     -5.17941327	     -9.34104412	     17.11154408	      1.21978625	      5.22464275	      0.41908366	     13.95376606
      1.33000000	    -11.57460568	      4.01506099	    -35.24095054	     -0.96586232	      0.87745034	     -0.39926091	     12.32881911	      0.15100476	      2.64718953	     -8.54433079	     13.08237945	     -0.08710536	      9.09241138	     -3.12726234	     -5.00675622	     -9.41841787	     17.26104132	      1.11183508	      5.11188750	      0.37583058	     13.92317884
      1.34000000	    -11.43886343	      4.02166297	    -35.13686243	     -0.96439231	      0.87726331	     -0.40002182	     12.56392667	     -0.04174819	      2.59225237	     -9.33067055	     13.51295317	      0.00656995	      8.97343973	     -2.92306001	     -4.82305946	     -9.49831345	     17.42048137	      0.99315800	      4.98852713	      0.31820064	     13.89190415
      1.35000000	    -11.30994650	      4.06999967	    -35.02476279	     -0.96290890	      0.87700057	     -0.40082938	     12.90120822	     -0.26974673	      2.54268240	    -10.24597570	     13.94310714	      0.20278483	      8.88474444	     -2.68083003	     -4.60099672	     -9.57315284	     17.57611917	      0.77465140	      4.89653077	      0.22073367	     13.87237984
      1.36000000	    -11.13970118	      4.08944913	    -34.91064810	     -0.96137474	      0.87676727	     -0.40165048	     13.23862512	     -0.49756412	      2.49008794	    -11.26566351	     14.42123428	      0.36422182	      8.74765143	     -2.43844191	     -4.39912932	     -9.66518223	     17.73801274	      0.60744603	      4.74175545	      0.12422609	     13.83451990
      1.37000000	    -10.92402770	      4.11414528	    -34.79349263	     -0.95980831	      0.87653993	     -0.40250226	     13.59894317	     -0.75812024	      2.43880773	    -12.39696807	     14.91981073	      0.46456317	      8.56914435	     -2.16024801	     -4.19171897	     -9.75074680	     17.89183615	      0.51161788	      4.54027471	     -0.00991029	     13.78804368
      1.38000000	    -10.70185140	      4.15237668	    -34.68212844	     -0.95824896	      0.87626384	     -0.40337565	     14.03993723	     -1.03140959	      2.40128865	    -13.66690799	     15.41254426	      0.60858619	      8.37998680	     -1.86520303	     -3.98785417	     -9.81706562	     18.05652169	      0.38583485	      4.33420505	     -0.16043166	     13.73702877
      1.39000000	    -10.45513932	      4.19319005	    -34.57888099	     -0.95670519	      0.87597239	     -0.40427266	     14.53503035	     -1.31916634	      2.37760471	    -15.06776626	     15.89140832	      0.76672424	      8.15971951	     -1.55261286	     -3.78962393	     -9.86649343	     18.22578759	      0.26400233	      4.09468276	     -0.33077211	     13.68146108
      1.40000000	    -10.18613696	      4.23622499	    -34.48448183	     -0.95518728	      0.87566958	     -0.40519027	     15.09148647	     -1.61804165	      2.37320636	    -16.60899417	     16.33654258	      0.93707080	      7.90818457	     -1.22544049	     -3.60291340	     -9.89408659	     18.39844321	      0.15300586	      3.82334929	     -0.51857734	     13.61910000
      1.41000000	     -9.93588354	      4.29089733	    -34.40750099	     -0.95373011	      0.87531274	     -0.40611667	     15.76561966	     -1.90954995	      2.39446477	    -18.31050872	     16.70739411	      1.24920913	      7.66840615	     -0.90334879	     -3.43625480	     -9.89932941	     18.58716518	     -0.02787772	      3.56477761	     -0.70601323	     13.55526869
      1.42000000	     -9.63218318	      4.33242262	    -34.33879513	     -0.95228726	      0.87504385	     -0.40705110	     16.46469940	     -2.21622715	      2.42921932	    -20.14969250	     16.97462954	      1.42336642	      7.35140720	     -0.56173933	     -3.26579957	     -9.86374702	     18.73234756	     -0.07815576	      3.23061012	     -0.92014764	     13.48809371
      1.43000000	     -9.34295268	      4.35932787	    -34.27955483	     -0.95090269	      0.87478535	     -0.40799322	     17.26805535	     -2.49365558	      2.48907335	    -22.16197272	     17.13133323	      1.64783156	      7.03913827	     -0.24721969	     -3.10518659	     -9.82630125	     18.88216812	     -0.12491821	      2.88414453	     -1.11314040	     13.42035188
      1.44000000	     -9.09938424	      4.38328173	    -34.23018551	     -0.94955101	      0.87451440	     -0.40891385	     18.21760319	     -2.73179916	      2.57073504	    -24.35624403	     17.10030544	      1.98117425	      6.73859225	      0.03290208	     -2.97860823	     -9.73527195	     19.04115586	     -0.17646529	      2.57041207	     -1.27321837	     13.33007088
      1.45000000	     -8.86243661	      4.37903945	    -34.17999765	     -0.94823864	      0.87431679	     -0.40982519	     19.26211491	     -2.93246286	      2.67097474	    -26.72591359	     16.89452787	      2.30158716	      6.41360620	      0.27945699	     -2.85600293	     -9.61470563	     19.16773401	     -0.17743690	      2.22846422	     -1.40777972	     13.23036118
      1.46000000	     -8.64518997	      4.34275786	    -34.12714753	     -0.94694544	      0.87419048	     -0.41072739	     20.40982340	     -3.08458773	      2.78780383	    -29.26327825	     16.46916831	      2.61992234	      6.07110461	      0.48301555	     -2.74044912	     -9.46216948	     19.27767510	     -0.14229353	      1.86924073	     -1.50151325	     13.12283327
      1.47000000	     -8.48964684	      4.29786416	    -34.07124920	     -0.94567061	      0.87406950	     -0.41157271	     21.71084096	     -3.17661074	      2.93341877	    -31.95618677	     15.77343191	      3.03967095	      5.74878909	      0.63597530	     -2.65931809	     -9.25275281	     19.38210533	     -0.08588229	      1.55666853	     -1.55299061	     12.98532169
      1.48000000	     -8.37864542	      4.19546672	    -33.99989626	     -0.94436537	      0.87401726	     -0.41238020	     23.09062946	     -3.18294660	      3.08812945	    -34.74714787	     14.80331155	      3.59330373	      5.42277067	      0.70685108	     -2.58825930	     -9.03109733	     19.51481915	     -0.00133152	      1.24285428	     -1.51909156	     12.80859423
      1.49000000	     -8.25491680	      4.06528837	    -33.92072090	     -0.94300747	      0.87407269	     -0.41308674	     24.51366621	     -3.15770168	      3.24298590	    -37.62308115	     13.64087586	      3.98856299	      5.02186959	      0.75598064	     -2.52351784	     -8.72742912	     19.57220589	      0.11144933	      0.89590799	     -1.47703997	     12.61489460
      1.50000000	     -8.14369007	      3.88998236	    -33.82395284	     -0.94156709	      0.87421576	     -0.41370713	     25.96292567	     -3.08268021	      3.36485784	    -40.52005054	     12.29032401	      4.33886800	      4.58033876	      0.75320667	     -2.46256247	     -8.38943744	     19.59880159	      0.23623225	      0.53265002	     -1.38461614	     12.38964181
